<?xml version="1.0" encoding="UTF-8"?>
<svg id="Capa_2" data-name="Capa 2" xmlns="http://www.w3.org/2000/svg" viewBox="0 0 137.84 497.62">
  <defs>
    <style>
      .cls-1 {
        fill: none;
        stroke: #000;
        stroke-miterlimit: 10;
      }
    </style>
  </defs>
  <g id="Capa_1-2" data-name="Capa 1">
    <path class="cls-1" d="M20.41,116.07s22.34-14.81,21.96-28.85-6.26-54.77-3.32-67.15S56.79,1.94,65.34.67s26.3,5.11,27.83,9.7-1.53,72.26,0,77.87,31.53,24.64,33.96,29.36,1.4,7.28-3.83,12.51-25.66,11.49-29.87,43.66-4.6,74.43-4.34,86.3-3.45,31.06,14.04,40.17,25.48,13.83,25.25,21.62-29.59,22.85-30.35,32.17,21.19,16.47,26.55,19.4,12.89,10.72,12.77,13.28-13.28,14.68-19.4,19.15-17.87,2.94-26.04,30.64c0,0-.83,38.3,2.9,46.98s-45.8,25.79-57.29,0c-4.21-28.47,3.57-38.3,1.53-53.87S6.23,402.92,1.77,397.18s3.19-15.45,18.13-22.47,24-19.28,8.43-30.38-27.41-13.5-23.59-28.34c.35-1.34,1.32-2.46,2.62-2.93,2.68-.97,8.26-3.73,17-11.62,12.89-11.62,15.45-44.68,14.81-101.36s1.02-44.17-11.49-57.96c0,0-8.13-7.06-18.47-12-4.66-4.6,11.19-14.04,11.19-14.04Z"/>
  </g>
</svg>